<svg width="613" height="63" viewBox="0 0 613 63" fill="none" xmlns="http://www.w3.org/2000/svg">
<path d="M40.6727 0C46.5402 1.62916 51.823 4.8943 55.904 9.414C59.985 13.9337 62.6957 19.5213 63.7194 25.5242C64.7431 31.5271 64.0375 37.6973 61.6851 43.3141C59.3326 48.9309 55.4305 53.7624 50.4345 57.2441C45.4386 60.7258 39.555 62.714 33.4711 62.9765C27.3873 63.239 21.3543 61.7649 16.077 58.7264C10.7997 55.6879 6.49599 51.2105 3.66856 45.8171C0.841132 40.4238 -0.393251 34.3373 0.109609 28.2686L16.9166 29.6612C16.678 32.5404 17.2636 35.428 18.605 37.9868C19.9464 40.5455 21.9883 42.6697 24.4919 44.1113C26.9956 45.5528 29.8578 46.2522 32.7442 46.1276C35.6306 46.0031 38.4219 45.0598 40.7921 43.408C43.1624 41.7562 45.0136 39.464 46.1297 36.7992C47.2457 34.1345 47.5805 31.2071 47.0948 28.3592C46.6092 25.5113 45.3231 22.8603 43.387 20.7161C41.4509 18.5718 38.9445 17.0227 36.1608 16.2498L40.6727 0Z" fill="white"/>
<path d="M103.164 55.2055C99.3116 55.2055 95.9292 54.4663 93.0172 52.9879C90.15 51.5095 87.9324 49.4263 86.3644 46.7383C84.8412 44.0055 84.0796 40.7799 84.0796 37.0615V6.35114H92.8156V37.0615C92.8156 40.4215 93.7116 43.0199 95.5036 44.8567C97.2956 46.6935 99.8492 47.6119 103.164 47.6119C106.48 47.6119 109.033 46.6935 110.825 44.8567C112.662 43.0199 113.58 40.4215 113.58 37.0615V6.35114H122.316V37.0615C122.316 40.7799 121.532 44.0055 119.964 46.7383C118.396 49.4263 116.179 51.5095 113.312 52.9879C110.489 54.4663 107.107 55.2055 103.164 55.2055Z" fill="white"/>
<path d="M131.044 54.1303V6.41834H151.002C154.452 6.41834 157.431 7.00074 159.94 8.16554C162.448 9.33034 164.397 10.9879 165.786 13.1383C167.175 15.2887 167.869 17.8199 167.869 20.7319C167.869 22.9271 167.399 24.8759 166.458 26.5783C165.517 28.2807 164.24 29.6471 162.628 30.6775C161.06 31.7079 159.312 32.3351 157.386 32.5591L157.05 31.8871C160.141 31.8871 162.516 32.5815 164.173 33.9703C165.876 35.3591 166.839 37.4871 167.063 40.3543L168.272 54.1303H159.402L158.394 41.6311C158.26 39.7495 157.655 38.3607 156.58 37.4647C155.504 36.5687 153.712 36.1207 151.204 36.1207H139.78V54.1303H131.044ZM139.78 28.4599H150.464C153.108 28.4599 155.168 27.8327 156.647 26.5783C158.125 25.3239 158.864 23.5543 158.864 21.2695C158.864 18.9399 158.103 17.1479 156.58 15.8935C155.101 14.6391 152.928 14.0119 150.061 14.0119H139.78V28.4599Z" fill="white"/>
<path d="M175.359 54.1303V6.41834H193.234C199.058 6.41834 203.471 7.44874 206.472 9.50954C209.519 11.5703 211.042 14.8407 211.042 19.3207C211.042 21.3367 210.616 23.1063 209.765 24.6295C208.959 26.1079 207.749 27.2727 206.136 28.1239C204.568 28.9751 202.664 29.4455 200.424 29.5351L200.357 29.4007C204.434 29.5351 207.57 30.6551 209.765 32.7607C211.96 34.8215 213.058 37.5767 213.058 41.0263C213.058 45.4167 211.535 48.7095 208.488 50.9047C205.487 53.0551 201.208 54.1303 195.653 54.1303H175.359ZM184.095 46.7383H195.25C197.983 46.7383 200.133 46.1783 201.701 45.0583C203.314 43.9383 204.12 42.2807 204.12 40.0855C204.12 37.8903 203.336 36.2103 201.768 35.0455C200.2 33.8807 198.028 33.2983 195.25 33.2983H184.095V46.7383ZM184.095 26.4439H192.965C195.832 26.4439 198.072 25.9063 199.685 24.8311C201.298 23.7559 202.104 22.1879 202.104 20.1271C202.104 17.9767 201.32 16.3863 199.752 15.3559C198.184 14.3255 195.922 13.8103 192.965 13.8103H184.095V26.4439Z" fill="white"/>
<path d="M214.197 54.1303L231.4 6.41834H242.085L259.288 54.1303H250.149L246.184 42.8407H227.301L223.336 54.1303H214.197ZM229.854 35.3815H243.63L236.776 15.2215L229.854 35.3815Z" fill="white"/>
<path d="M262.349 54.1303V6.41834H272.563L293.126 42.3031V6.41834H301.862V54.1303H291.379L271.085 19.2535V54.1303H262.349Z" fill="white"/>
<path d="M324.467 54.1303V6.41834H336.227L349.398 43.3783L362.569 6.41834H374.329V54.1303H365.593V21.2023L353.564 54.0631H345.231L333.203 21.2023V54.1303H324.467Z" fill="white"/>
<path d="M378.333 54.1303L395.536 6.41834H406.221L423.424 54.1303H414.285L410.32 42.8407H391.437L387.472 54.1303H378.333ZM393.99 35.3815H407.766L400.912 15.2215L393.99 35.3815Z" fill="white"/>
<path d="M426.485 54.1303V6.41834H444.965C450.565 6.41834 454.933 7.76234 458.069 10.4503C461.205 13.1383 462.773 16.8567 462.773 21.6055C462.773 24.7863 462.056 27.5415 460.622 29.8711C459.189 32.1559 457.15 33.9031 454.507 35.1127C451.864 36.3223 448.683 36.9271 444.965 36.9271H435.221V54.1303H426.485ZM435.221 29.3335H444.561C447.518 29.3335 449.781 28.6839 451.349 27.3847C452.961 26.0855 453.768 24.1591 453.768 21.6055C453.768 19.0967 452.961 17.2151 451.349 15.9607C449.781 14.6615 447.518 14.0119 444.561 14.0119H435.221V29.3335Z" fill="white"/>
<path d="M467.781 54.1303V6.41834H486.261C491.861 6.41834 496.229 7.76234 499.365 10.4503C502.501 13.1383 504.069 16.8567 504.069 21.6055C504.069 24.7863 503.352 27.5415 501.919 29.8711C500.485 32.1559 498.447 33.9031 495.804 35.1127C493.16 36.3223 489.98 36.9271 486.261 36.9271H476.517V54.1303H467.781ZM476.517 29.3335H485.858C488.815 29.3335 491.077 28.6839 492.645 27.3847C494.258 26.0855 495.064 24.1591 495.064 21.6055C495.064 19.0967 494.258 17.2151 492.645 15.9607C491.077 14.6615 488.815 14.0119 485.858 14.0119H476.517V29.3335Z" fill="white"/>
<path d="M509.078 54.1303V6.41834H517.814V54.1303H509.078Z" fill="white"/>
<path d="M525.502 54.1303V6.41834H535.717L556.28 42.3031V6.41834H565.016V54.1303H554.533L534.238 19.2535V54.1303H525.502Z" fill="white"/>
<path d="M591.991 55.2055C587.467 55.2055 583.569 54.1527 580.299 52.0471C577.028 49.8967 574.519 46.9623 572.772 43.2439C571.07 39.5255 570.219 35.2247 570.219 30.3415C570.219 25.5479 571.092 21.2695 572.839 17.5063C574.631 13.7431 577.185 10.7863 580.5 8.63594C583.815 6.44074 587.803 5.34314 592.462 5.34314C596.494 5.34314 599.876 6.03754 602.609 7.42634C605.387 8.81514 607.604 10.7415 609.262 13.2055C610.919 15.6695 612.084 18.5143 612.756 21.7399L603.617 22.2103C603.124 19.3879 602.004 17.1479 600.257 15.4903C598.555 13.7879 595.979 12.9367 592.529 12.9367C589.483 12.9367 586.974 13.7207 585.003 15.2887C583.076 16.8567 581.62 18.9623 580.635 21.6055C579.694 24.2039 579.223 27.1159 579.223 30.3415C579.223 33.6567 579.694 36.6135 580.635 39.2119C581.575 41.8103 583.031 43.8711 585.003 45.3943C587.019 46.8727 589.55 47.6119 592.596 47.6119C594.971 47.6119 597.009 47.1191 598.711 46.1335C600.414 45.1479 601.758 43.8039 602.743 42.1015C603.729 40.3543 604.267 38.4279 604.356 36.3223H592.596V29.5351H612.891V54.1303H607.246L606.708 43.6471L607.783 44.3191C607.291 46.4695 606.283 48.3735 604.759 50.0311C603.281 51.6439 601.422 52.9207 599.182 53.8615C596.987 54.7575 594.59 55.2055 591.991 55.2055Z" fill="white"/>
</svg>
